Coordinates
version=1
nRows=13
nColumns=34
inDegrees=yes

Units are S.I. units (second, meters, Newtons, ...)
If the header above contains a line with 'inDegrees', this indicates whether rotational values are in degrees (yes) or radians (no).

endheader
time	pelvis_tilt	pelvis_list	pelvis_rotation	pelvis_tx	pelvis_ty	pelvis_tz	hip_flexion_r	hip_adduction_r	hip_rotation_r	knee_angle_r	ankle_angle_r	subtalar_angle_r	mtp_angle_r	hip_flexion_l	hip_adduction_l	hip_rotation_l	knee_angle_l	ankle_angle_l	subtalar_angle_l	mtp_angle_l	lumbar_extension	lumbar_bending	lumbar_rotation	arm_flex_r	arm_add_r	arm_rot_r	elbow_flex_r	pro_sup_r	arm_flex_l	arm_add_l	arm_rot_l	elbow_flex_l	pro_sup_l
      3.00000000	      8.62153787	     -6.26544836	    -28.11733928	      3.00269488	      0.96815333	      1.29234316	     18.38499103	     12.30735544	     -3.76922003	     33.16958467	     12.56736874	      4.41301563	      0.00000000	     11.35005627	     16.87205253	      3.79057262	     11.00673723	     -3.84027131	    -12.06896834	      0.00000000	    -16.36253967	     -9.52893310	     11.17589330	     24.28394446	     30.87203462	     40.48868122	     28.61886994	    106.11450173	     19.77272718	     28.32943620	     27.21844922	     21.75202513	     99.15690369
      3.01666670	      8.32150839	     -5.75253362	    -28.50893146	      3.00307816	      0.96712934	      1.29248409	     19.04853452	     11.56055885	     -4.72321723	     33.34703817	     13.51188892	      7.45541007	      0.00000000	     11.85902770	     17.21346332	      3.71807557	     10.75047607	     -4.45151758	    -13.00363096	      0.00000000	    -15.83245819	    -10.09184889	     11.64350968	     24.65530266	     31.01678030	     40.79042037	     27.73118797	    106.63446009	     19.72664044	     28.00619262	     27.88448892	     22.27895448	     99.30469830
      3.03333330	      8.12912904	     -5.71025256	    -28.80447894	      3.00340708	      0.96682981	      1.29276709	     19.16839474	     11.46373060	     -4.86582643	     33.01396871	     13.07798155	      9.02286629	      0.00000000	     12.11169251	     17.14828068	      3.63609295	     10.79062043	     -4.47823897	    -13.36193408	      0.00000000	    -15.69050170	    -10.20700343	     12.01489321	     24.95796675	     31.24861014	     40.69181918	     26.73070008	    106.75302660	     19.65025058	     27.87586087	     28.05440056	     22.81449352	     99.33967374
      3.05000000	      7.82145026	     -5.37556292	    -28.71016688	      3.00412279	      0.96636780	      1.29268279	     19.76139235	     10.90665193	     -5.63120751	     33.08903605	     13.27064916	     11.11535872	      0.00000000	     12.35282548	     17.36676717	      4.02947595	     10.43199006	     -4.97578749	    -13.82017950	      0.00000000	    -15.38592636	    -10.63014977	     11.84737405	     25.12599225	     31.52645290	     40.84953202	     25.95956658	    107.18193033	     19.51802053	     27.51421842	     28.48224335	     23.36540018	     99.41446495
      3.06666670	      7.62226881	     -5.46448140	    -28.78795026	      3.00497250	      0.96661655	      1.29275511	     19.90979551	     11.03468420	     -5.49824091	     32.87955156	     13.24825292	     11.35006972	      0.00000000	     12.32500119	     17.21536419	      4.19520273	     10.21507435	     -4.94351879	    -13.89608703	      0.00000000	    -15.31859955	    -10.65477974	     11.77067151	     25.00321393	     31.73261059	     40.83637423	     25.62427598	    107.20660090	     19.59872613	     27.20024869	     28.53049805	     23.60421315	     99.42977125
      3.08333330	      7.62356000	     -5.58947403	    -28.82173900	      3.00724388	      0.96678225	      1.29282043	     19.87176731	     11.07167254	     -5.23833396	     32.96099214	     14.15106617	     11.65991784	      0.00000000	     12.21191849	     17.20063754	      4.41672418	     10.42159769	     -4.68925291	    -14.28053257	      0.00000000	    -15.24141230	    -10.58270997	     11.67697486	     24.83765584	     32.02477678	     40.86976389	     24.69196639	    107.25087741	     19.29365860	     26.94156031	     28.83614764	     24.18486810	     99.49845144
      3.10000000	      7.55009288	     -5.64396145	    -28.85106655	      3.00825495	      0.96705067	      1.29272420	     19.99568120	     11.05614458	     -5.24206576	     32.91005180	     14.18767539	     11.67818706	      0.00000000	     12.18593453	     17.13571394	      4.43103551	     10.40832713	     -4.69494281	    -14.27920298	      0.00000000	    -15.37403210	    -10.66814428	     11.67464857	     24.75156590	     31.97321538	     40.87667578	     24.61084892	    107.25218846	     19.28231297	     26.88447911	     28.84600772	     24.19227146	     99.50070216
      3.11666670	      7.57764027	     -5.50915097	    -28.78635473	      3.01012543	      0.96720924	      1.29280793	     20.19114892	     10.48180643	     -6.09407403	     33.33329369	     15.17711329	     13.52464720	      0.00000000	     11.91135940	     17.36426297	      4.79077520	     10.02205948	     -5.06235194	    -14.53085411	      0.00000000	    -15.34090579	    -10.79339823	     11.32383116	     24.92140542	     32.33337959	     41.20777937	     23.17500132	    107.38628925	     18.97054388	     26.23048685	     30.13445656	     25.26429722	     99.73521577
      3.13333330	      7.50346291	     -5.62241043	    -28.74908885	      3.01203524	      0.96759524	      1.29298326	     20.16649183	     10.46166115	     -6.35674769	     33.35931870	     15.58056566	     13.66989756	      0.00000000	     11.81989628	     17.29731307	      4.94475557	     10.08316308	     -4.99706634	    -14.54719005	      0.00000000	    -15.26041287	    -10.67326253	     11.77380371	     24.87238043	     32.05590602	     41.16178027	     22.86455522	    107.37473845	     18.63270615	     26.33225181	     30.27175523	     25.53015998	     99.75167523
      3.15000000	      7.56236454	     -6.12608278	    -28.54591128	      3.01469440	      0.96848809	      1.29273818	     19.84049701	     10.18758429	     -7.95046332	     33.61129169	     16.45814650	     16.65744071	      0.00000000	     11.39738943	     17.01582141	      5.40361223	     10.31484694	     -4.84725418	    -14.89839317	      0.00000000	    -15.46804468	    -10.12056571	     12.19069830	     24.82910207	     31.84633106	     40.60380215	     22.28086389	    107.22799468	     18.20893112	     26.25061023	     31.55583936	     26.58121767	     99.82425680
      3.16666670	      7.75255037	     -6.69808987	    -28.26370019	      3.01769275	      0.96949527	      1.29216895	     19.39199037	      9.99539673	     -9.10272861	     33.91623470	     17.04490659	     18.66692822	      0.00000000	     10.87646625	     16.77074586	      5.82470303	     10.72418968	     -4.40970590	    -15.10783089	      0.00000000	    -15.71219842	     -9.54010098	     12.67770240	     24.75888068	     31.42320523	     39.87071925	     21.74122452	    107.02130497	     17.87351126	     26.42257764	     32.65625555	     27.32118472	     99.68564734
      3.18333330	      7.92640668	     -7.17410923	    -28.10758067	      3.01977017	      0.97037180	      1.29193657	     19.21892367	     10.09552444	     -9.24333559	     34.39973472	     17.01543551	     19.30743388	      0.00000000	     10.48247830	     16.53852695	      6.06410053	     11.09810403	     -4.00160641	    -15.32399456	      0.00000000	    -15.86822314	     -9.14811776	     13.13481338	     24.83595220	     31.01528951	     39.39267353	     21.15952226	    106.87636964	     17.59007971	     26.57610186	     32.98477201	     28.28588509	     99.65345722
      3.20000000	      8.33675050	     -7.94575499	    -27.42386290	      3.02188400	      0.97206659	      1.29054809	     18.73263517	     10.23846771	     -9.64807040	     34.76296915	     16.75281441	     19.96210071	      0.00000000	      9.38165939	     16.22091124	      6.93594854	     10.98870080	     -3.97403029	    -15.35162707	      0.00000000	    -16.52281458	     -8.40345913	     13.10031197	     24.77291799	     30.57259403	     37.75643270	     20.78972308	    106.37255843	     17.53738031	     26.69115042	     33.28078572	     29.39394357	     99.46791191
